<?xml version="1.0" encoding="utf-8"?>
<!-- Generator: Adobe Illustrator 22.1.0, SVG Export Plug-In . SVG Version: 6.00 Build 0)  -->
<svg version="1.1" id="Capa_1" xmlns="http://www.w3.org/2000/svg" xmlns:xlink="http://www.w3.org/1999/xlink" x="0px" y="0px"
	 viewBox="0 0 512 512" style="enable-background:new 0 0 512 512;" xml:space="preserve">
<style type="text/css">
	.st0{fill:#FFE17D;enable-background:new    ;}
	.st1{fill:#FFC350;enable-background:new    ;}
	.st2{fill:#FFD164;enable-background:new    ;}
	.st3{fill:#FF8087;enable-background:new    ;}
	.st4{fill:#E6646E;enable-background:new    ;}
	.st5{enable-background:new    ;}
</style>
<path class="st0" d="M249,10.9L28,117.6c-2.8,1.3-4.5,4.1-4.5,7.2v262.5c0,3.1,1.8,5.9,4.5,7.2l221,106.7c4.4,2.1,9.5,2.1,13.9,0
	l221-106.7c2.8-1.3,4.5-4.1,4.5-7.2V124.8c0-3.1-1.8-5.9-4.5-7.2L263,10.9C258.6,8.7,253.4,8.7,249,10.9z"/>
<path class="st1" d="M24.9,120.4c-0.8,1.3-1.3,2.8-1.3,4.4v262.5c0,3.1,1.8,5.9,4.5,7.2l221,106.7c2.2,1.1,4.6,1.6,7,1.6V232
	L24.9,120.4z"/>
<path class="st2" d="M487.1,120.4c0.8,1.3,1.3,2.8,1.3,4.4v262.5c0,3.1-1.8,5.9-4.5,7.2L263,501.1c-2.2,1.1-4.6,1.6-7,1.6V232
	L487.1,120.4z"/>
<polygon class="st3" points="408.8,158.1 176.9,46 115.7,75.6 348.2,187.9 "/>
<path class="st4" d="M348.2,187.9v86.9c0,3,3.1,4.9,5.8,3.6l50.3-24.3c2.8-1.3,4.5-4.1,4.5-7.2v-88.8L348.2,187.9z"/>
<path class="st5" d="M491.7,113L259.3,0.7c-2.1-1-4.5-1-6.5,0L20.3,113c-2.6,1.3-4.2,3.9-4.2,6.8v272.5c0,2.9,1.6,5.5,4.2,6.8
	l232.5,112.2c1,0.5,2.1,0.7,3.3,0.7c1.1,0,2.2-0.2,3.3-0.7L491.7,399c2.6-1.3,4.2-3.9,4.2-6.8V119.7
	C496,116.8,494.3,114.2,491.7,113z M256,15.8l215.2,103.9l-62.4,30.1c-0.4-0.3-0.8-0.6-1.3-0.8L193.8,45.9L256,15.8z M176.9,54.3
	L391.8,158l-44,21.2L132.9,75.6L176.9,54.3z M355.7,192.2l41.1-19.8v78.5l-41.1,19.8V192.2z M263.5,492.6V236.7l51.9-25
	c3.7-1.8,5.3-6.3,3.5-10s-6.3-5.3-10-3.5L256,223.6l-20.8-10c-3.7-1.8-8.2-0.2-10,3.5s-0.2,8.2,3.5,10l19.8,9.6v255.9L31,387.6
	V131.7l165.6,79.9c1.1,0.5,2.2,0.7,3.3,0.7c2.8,0,5.5-1.6,6.8-4.2c1.8-3.7,0.2-8.2-3.5-10L40.8,119.7l74.5-36l225.3,108.8l0.1,0.1
	v90c0,2.6,1.3,5,3.5,6.4c1.2,0.8,2.6,1.1,4,1.1c1.1,0,2.2-0.2,3.3-0.7l56.1-27.1c2.6-1.3,4.2-3.9,4.2-6.8V165l69.2-33.4v255.9
	L263.5,492.6z"/>
<path class="st5" d="M92.9,358.5L58.8,342c-3.7-1.8-8.2-0.2-10,3.5s-0.2,8.2,3.5,10L86.4,372c1.1,0.5,2.2,0.7,3.3,0.7
	c2.8,0,5.5-1.6,6.8-4.2C98.2,364.8,96.7,360.3,92.9,358.5z"/>
<path class="st5" d="M124.3,338l-65.5-31.6c-3.7-1.8-8.2-0.2-10,3.5s-0.2,8.2,3.5,10l65.5,31.6c1.1,0.5,2.2,0.7,3.3,0.7
	c2.8,0,5.5-1.6,6.8-4.2C129.6,344.3,128.1,339.8,124.3,338z"/>
</svg>
