<?xml version="1.0" encoding="utf-8"?>
<!-- Generator: Adobe Illustrator 22.1.0, SVG Export Plug-In . SVG Version: 6.00 Build 0)  -->
<svg version="1.1" id="Слой_1" xmlns="http://www.w3.org/2000/svg" xmlns:xlink="http://www.w3.org/1999/xlink" x="0px" y="0px"
	 viewBox="0 0 16 16" style="enable-background:new 0 0 16 16;" xml:space="preserve">
<path d="M8,14.5c-3.6,0-6.5-2.9-6.5-6.5S4.4,1.5,8,1.5s6.5,2.9,6.5,6.5S11.6,14.5,8,14.5z M8,16c4.4,0,8-3.6,8-8s-3.6-8-8-8
	S0,3.6,0,8S3.6,16,8,16L8,16z"/>
<path d="M6.1,5.7C6.6,5.3,7.3,5,8,5c1.7,0,3,1.3,3,3c0,1.7-1.3,3-3,3c-0.8,0-1.6-0.3-2.1-0.9l-1.1,1.1c0.8,0.8,2,1.3,3.2,1.3
	c2.5,0,4.5-2,4.5-4.5s-2-4.5-4.5-4.5c-1.1,0-2,0.4-2.8,1C5.2,4.5,6.1,5.7,6.1,5.7z"/>
</svg>
