<?xml version="1.0" encoding="utf-8"?>
<!-- Generator: Adobe Illustrator 24.0.0, SVG Export Plug-In . SVG Version: 6.00 Build 0)  -->
<svg version="1.1" id="Слой_1" xmlns="http://www.w3.org/2000/svg" xmlns:xlink="http://www.w3.org/1999/xlink" x="0px" y="0px"
	 viewBox="0 0 135 40" style="enable-background:new 0 0 135 40;" xml:space="preserve">
<style type="text/css">
	.st0{fill:#22F486;}
	.st1{fill:#FFFFFF;}
</style>
<path d="M128.2,40H6.8C3,40,0,37,0,33.2V6.8C0,3,3,0,6.8,0h121.5c3.7,0,6.8,3,6.8,6.8v26.5C135,37,132,40,128.2,40z"/>
<path class="st0" d="M12,32.5h20.6v-2.9H12 M32.6,16.3h-5.9V7.5h-8.8v8.8H12l10.3,10.3L32.6,16.3z"/>
<g>
	<path class="st1" d="M56.3,17.9c-0.6,0.7-1.3,1.3-2.2,1.7c-0.9,0.4-1.8,0.6-2.9,0.6c-1,0-1.8-0.2-2.7-0.5c-0.8-0.3-1.5-0.8-2.1-1.4
		s-1.1-1.3-1.4-2.1c-0.3-0.8-0.5-1.7-0.5-2.7c0-0.9,0.2-1.8,0.5-2.7c0.3-0.8,0.8-1.5,1.4-2.1c0.6-0.6,1.3-1.1,2.1-1.4
		c0.8-0.3,1.7-0.5,2.7-0.5c1,0,1.9,0.2,2.7,0.5c0.8,0.4,1.5,0.9,2.1,1.6l-1.4,1.4C54,9.7,53.5,9.3,53,9.1c-0.5-0.3-1.2-0.4-1.9-0.4
		c-0.6,0-1.2,0.1-1.8,0.3s-1.1,0.5-1.5,1c-0.4,0.4-0.8,0.9-1,1.5c-0.2,0.6-0.4,1.3-0.4,2s0.1,1.4,0.4,2c0.2,0.6,0.6,1.1,1,1.5
		c0.4,0.4,0.9,0.7,1.5,1s1.2,0.3,1.8,0.3c0.8,0,1.5-0.2,2.1-0.5c0.6-0.3,1.1-0.8,1.6-1.3L56.3,17.9z"/>
	<path class="st1" d="M68,7.1l-5.4,6.4l5.7,6.2v0.1h-2.7L60.3,14h-0.1v5.9h-2V7h2v6.2h0.1L65.4,7H68V7.1z"/>
	<path class="st1" d="M73.4,7h2.3l4.8,12.9h-2.3l-1.2-3.3h-5.2l-1.2,3.3h-2.3L73.4,7z M76.4,14.7l-1.3-3.8l-0.5-1.5h-0.1L74,10.9
		l-1.3,3.8H76.4z"/>
	<path class="st1" d="M87.8,7h2v12.9h-2v-5.7c-0.3,0.3-0.8,0.5-1.2,0.7c-0.5,0.2-1,0.3-1.7,0.3c-0.6,0-1.1-0.1-1.6-0.3
		c-0.5-0.2-1-0.4-1.3-0.8c-0.4-0.3-0.7-0.8-0.9-1.3s-0.3-1-0.3-1.7V7h2.1v3.9c0,0.8,0.2,1.4,0.7,1.8s1,0.6,1.8,0.6
		c0.6,0,1-0.1,1.4-0.3c0.4-0.2,0.8-0.5,1.1-0.9V7z"/>
	<path class="st1" d="M95.9,7h2.3l4.8,12.9h-2.3l-1.2-3.3h-5.2l-1.2,3.3H91L95.9,7z M98.9,14.7l-1.3-3.8l-0.5-1.5H97l-0.5,1.5
		l-1.3,3.8H98.9z"/>
	<path class="st1" d="M106.1,19.9V8.9h-3.6V7h9.2v1.9h-3.6v10.9H106.1z"/>
	<path class="st1" d="M113.6,19.9V7h2v4.6h2.7c0.6,0,1.2,0.1,1.7,0.3c0.5,0.2,1,0.5,1.4,0.8c0.4,0.4,0.7,0.8,1,1.3s0.4,1.1,0.4,1.7
		c0,0.7-0.1,1.2-0.4,1.8c-0.2,0.5-0.6,1-1,1.3c-0.4,0.4-0.9,0.6-1.4,0.8s-1.1,0.3-1.7,0.3H113.6z M115.6,13.4V18h2.9
		c0.4,0,0.7-0.1,1-0.2c0.3-0.1,0.5-0.3,0.7-0.5c0.2-0.2,0.3-0.5,0.4-0.7c0.1-0.3,0.2-0.5,0.2-0.8c0-0.3-0.1-0.5-0.2-0.8
		c-0.1-0.3-0.2-0.5-0.4-0.7c-0.2-0.2-0.4-0.4-0.7-0.5c-0.3-0.1-0.6-0.2-1-0.2H115.6z"/>
	<path class="st1" d="M44.5,25.7h5.3v7.2h-1.1v-6.1h-3.1v6.1h-1.1V25.7z"/>
	<path class="st1" d="M51.2,32.9v-7.2h2.5c0.3,0,0.6,0.1,0.9,0.2s0.5,0.3,0.7,0.5s0.4,0.4,0.5,0.7c0.1,0.3,0.2,0.6,0.2,0.9
		c0,0.3-0.1,0.6-0.2,0.9c-0.1,0.3-0.3,0.5-0.5,0.7s-0.5,0.3-0.7,0.5c-0.3,0.1-0.6,0.2-0.9,0.2h-1.4v2.8H51.2z M53.7,29
		c0.2,0,0.4,0,0.5-0.1s0.3-0.1,0.4-0.3s0.2-0.2,0.2-0.4c0.1-0.1,0.1-0.3,0.1-0.4c0-0.1,0-0.3-0.1-0.4c-0.1-0.1-0.1-0.3-0.2-0.4
		c-0.1-0.1-0.2-0.2-0.4-0.3c-0.1-0.1-0.3-0.1-0.5-0.1h-1.4V29H53.7z"/>
	<path class="st1" d="M62.6,32.9h-1.1v-4l0.1-1.4h-0.1l-3.2,5.4H57v-7.2h1.1v3.9L58.1,31h0.1l3.1-5.3h1.3V32.9z"/>
	<path class="st1" d="M63.9,32c0.3,0,0.5-0.1,0.6-0.2c0.1-0.1,0.2-0.4,0.3-0.7c0-0.3,0.1-0.8,0.1-1.4v-3.9h4.9v7.2h-1.1v-6.1H66v3.3
		c0,0.3,0,0.6,0,0.9c0,0.3-0.1,0.5-0.1,0.7c-0.1,0.2-0.1,0.4-0.2,0.5c-0.1,0.1-0.2,0.3-0.3,0.4c-0.2,0.2-0.4,0.3-0.6,0.4
		S64.2,33,63.9,33c-0.1,0-0.1,0-0.2,0c-0.1,0-0.1,0-0.2,0v-1.1c0,0,0.1,0,0.2,0S63.8,32,63.9,32z"/>
	<path class="st1" d="M74.5,33c-0.5,0-1-0.1-1.5-0.3c-0.5-0.2-0.8-0.5-1.2-0.8c-0.3-0.3-0.6-0.7-0.8-1.2c-0.2-0.5-0.3-0.9-0.3-1.5
		c0-0.5,0.1-1,0.3-1.5c0.2-0.5,0.4-0.9,0.8-1.2c0.3-0.3,0.7-0.6,1.2-0.8c0.4-0.2,0.9-0.3,1.5-0.3c0.5,0,1,0.1,1.5,0.3
		s0.8,0.5,1.2,0.8c0.3,0.3,0.6,0.7,0.8,1.2s0.3,0.9,0.3,1.5c0,0.5-0.1,1-0.3,1.5c-0.2,0.5-0.4,0.9-0.8,1.2c-0.3,0.3-0.7,0.6-1.2,0.8
		S75,33,74.5,33z M74.5,32c0.4,0,0.7-0.1,1-0.2c0.3-0.1,0.6-0.3,0.8-0.5c0.2-0.2,0.4-0.5,0.5-0.8c0.1-0.3,0.2-0.7,0.2-1.1
		s-0.1-0.8-0.2-1.1c-0.1-0.3-0.3-0.6-0.5-0.8c-0.2-0.2-0.5-0.4-0.8-0.5c-0.3-0.1-0.6-0.2-1-0.2s-0.7,0.1-1,0.2
		c-0.3,0.1-0.6,0.3-0.8,0.5c-0.2,0.2-0.4,0.5-0.5,0.8c-0.1,0.3-0.2,0.7-0.2,1.1s0.1,0.8,0.2,1.1c0.1,0.3,0.3,0.6,0.5,0.8
		c0.2,0.2,0.5,0.4,0.8,0.5C73.8,31.9,74.1,32,74.5,32z"/>
	<path class="st1" d="M83.7,32.9h-1.1v-3.2h-0.1L80,32.9h-1.5v-0.1l2.9-3.5l-2.7-3.6v-0.1H80l2.5,3.4h0.1v-3.4h1.1v3.4h0.1l2.5-3.4
		h1.4v0.1l-2.7,3.6l2.8,3.5v0.1h-1.5l-2.5-3.2h-0.1V32.9z"/>
	<path class="st1" d="M89.6,26.8v2h2.9v1.1h-2.9v2h3.2v1.1h-4.4v-7.2h4.4v1.1H89.6z"/>
	<path class="st1" d="M94.1,25.7h1.1v3h3.3v-3h1.1v7.2h-1.1v-3.1h-3.3v3.1h-1.1V25.7z"/>
	<path class="st1" d="M106.7,32.9h-1.1v-4l0.1-1.4h-0.1l-3.2,5.4h-1.2v-7.2h1.1v3.9l-0.1,1.4h0.1l3.2-5.3h1.3V32.9z"/>
	<path class="st1" d="M109.3,26.8v2h2.9v1.1h-2.9v2h3.2v1.1h-4.4v-7.2h4.4v1.1H109.3z"/>
</g>
</svg>
