<?xml version="1.0" encoding="utf-8"?>
<!-- Generator: Adobe Illustrator 24.0.0, SVG Export Plug-In . SVG Version: 6.00 Build 0)  -->
<svg version="1.1" id="Слой_1" xmlns="http://www.w3.org/2000/svg" xmlns:xlink="http://www.w3.org/1999/xlink" x="0px" y="0px"
	 viewBox="0 0 512 512" style="enable-background:new 0 0 512 512;" xml:space="preserve">
<style type="text/css">
	.st0{fill:url(#SVGID_1_);}
	.st1{fill:#313131;}
</style>
<g id="Вариант_4">
	<linearGradient id="SVGID_1_" gradientUnits="userSpaceOnUse" x1="25.2755" y1="285.3684" x2="487.4706" y2="285.3684">
		<stop  offset="0" style="stop-color:#FF6060"/>
		<stop  offset="1" style="stop-color:#E23D3D"/>
	</linearGradient>
	<path class="st0" d="M457.65,185.2c-27.28-48.21-71.39-85.67-124.36-104.36c-24.07-8.49-49.96-13.11-76.92-13.11
		c-27.42,0-53.72,4.78-78.12,13.54c-52.43,18.83-96.09,56.07-123.15,103.92c-18.98,33.56-29.82,72.33-29.82,113.63
		c0,6.11,0.23,12.15,0.71,18.12c2.37,30.67,10.73,59.64,23.9,85.78c20.88,41.4,53.84,75.67,94.25,98.16
		c6.16,3.43,13.97,0.14,15.79-6.68c3.09-11.6,4.74-23.78,4.74-36.36c0-2.84-0.08-5.67-0.25-8.47c-0.51-8.58,8.48-14.42,16.05-10.36
		c22.38,12.01,47.96,18.82,75.14,18.82s52.76-6.81,75.14-18.82c7.57-4.06,16.56,1.78,16.05,10.36c-0.17,2.8-0.25,5.63-0.25,8.47
		c0,12.85,1.72,25.31,4.95,37.14c1.84,6.76,9.58,10.04,15.73,6.67c40.99-22.44,74.44-56.96,95.55-98.75
		c13.23-26.19,21.63-55.23,23.99-85.98c0.48-5.97,0.71-12.01,0.71-18.1C487.47,257.53,476.63,218.76,457.65,185.2z M339.49,338.24
		c-14.82,31.43-46.82,53.18-83.89,53.18s-69.07-21.75-83.89-53.18c-5.69-12-8.86-25.41-8.86-39.57c0-5.16,0.42-10.22,1.24-15.15
		c5.38-32.76,27.92-59.73,58.08-71.39c10.37-4.02,21.64-6.21,33.44-6.21s23.06,2.2,33.44,6.21c30.36,11.73,52.99,38.97,58.18,72
		c0.74,4.73,1.13,9.58,1.13,14.53C348.35,312.82,345.18,326.24,339.49,338.24z"/>
	<path class="st1" d="M140.38,77.46c-29.18,15.23-54.98,36.07-75.95,61.09c-9.38,11.19-27.46,7.27-31.26-6.84
		c-5.15-19.17-7.9-39.32-7.9-60.12c0-16.56,1.74-32.73,5.06-48.31c1.91-8.99,10.95-15.32,20.07-14.1
		c34.39,4.62,65.99,18.04,92.45,37.92C153.44,55.04,152.11,71.33,140.38,77.46z"/>
	<path class="st1" d="M487.47,71.59c0,21.34-2.89,41.99-8.3,61.6c-3.89,14.09-21.99,17.95-31.29,6.68
		c-21.17-25.61-47.36-46.92-77.07-62.42c-11.74-6.12-13.02-22.42-2.43-30.37c26.88-20.19,59.04-33.71,94.05-38.12
		c9.06-1.14,18.04,5.18,19.95,14.11C485.72,38.71,487.47,54.95,487.47,71.59z"/>
</g>
</svg>
