<svg version="1" xmlns="http://www.w3.org/2000/svg" width="933.333" height="933.333" viewBox="0 0 700.000000 700.000000"><path d="M59.2 13.5c-7 2.1-12.4 6.5-15.6 12.5-2.5 4.6-6.9 30.1-8.2 48-.8 9.9-.8 40.2-.1 47.5 1.5 15 2.2 20.9 3.1 25 .2 1.1.7 4 1.1 6.5 1.7 11.2 5.9 27.9 8.1 32.2 5.3 10.4 17.3 15.2 29.5 11.7 3.4-1 6-3 11.4-8.7 37-39.3 62.3-59.9 96.3-78.4 4.3-2.3 9.2-5.3 11-6.6 5.1-3.8 8.4-10.3 8.9-17.5.5-5.4.2-7.1-2.1-11.9-1.6-3.4-4.3-7-6.9-9-4.8-3.9-22.3-15.8-23.3-15.8-.3 0-1.8-.9-3.3-2-5.2-3.6-28.6-14.8-41-19.4-17.5-6.7-47.2-14-60.6-15.1-2.2-.2-5.9.3-8.3 1zM628 12.7c-44.9 6.9-86.8 24-120.9 49.3-6.4 4.7-8.4 6.9-10.6 11.4-2.4 5-2.7 6.5-2.3 12.4.8 11.2 4.7 15.9 20.3 24.2 17.2 9.1 44 28.1 61.1 43.1 6.5 5.7 25.5 25 31.9 32.3 10.4 12 12.6 13.4 21.1 14.3 10.1 1.1 20-4.1 24.3-12.6 1.7-3.2 4.3-12.1 5.6-18.9.2-1.3.6-3.1.9-4 .3-.9.8-3.3 1.1-5.2.3-1.9.8-4.6 1-6 1.1-5.3 1.3-6.9 2-12.1.4-3 .9-6.5 1.1-7.9 2.1-15.8 2.1-59.6-.1-70.8-.2-1-.6-4.3-1-7.3-1.3-11.9-4.8-26.6-7.1-30.6-2.6-4.6-7.1-8.4-11.9-10.4-3.1-1.2-12.1-1.9-16.5-1.2zM341.7 92.6c-.1.1-5.1.5-11.2.8-12 .7-17.4 1.2-22 2-1.6.3-4.8.8-7 1.1-2.2.3-5.1.7-6.5 1-20.5 4-30.3 6.5-45 11.5-15.8 5.3-36.3 13.9-41.1 17.2-1.4.9-2.9 1.5-3.3 1.1-.3-.3-.6-.1-.6.5 0 .7-.5 1.2-1.2 1.2-2.7 0-27.3 15.3-41.9 26.1-17 12.7-36.5 30.6-49 45.3-1.9 2.2-4.8 5.6-6.5 7.5-1.7 2-6.6 8.3-10.8 14.1-4.2 5.8-8.1 11-8.6 11.7-.6.7-1 1.4-1 1.7 0 .3-2 3.6-4.4 7.4-11.8 18.2-26 49.4-33 72.6-7 23.2-10.8 43.1-13.2 70.1-.7 7.9-.7 39.6 0 46.5.2 2.5.8 7.6 1.1 11.5.4 3.8.9 7.7 1 8.5.1.8.6 3.5 1 6 3.2 21 9.5 44.1 17.7 65.5 5.1 13.1 21.4 46.2 23.8 48.5.3.3 2.7 4 5.4 8.2 2.6 4.3 5.3 8.4 5.9 9.1.7.7 2.8 3.5 4.7 6.2 7.7 11.1 16.2 20.8 31.9 36.5 21.8 21.7 45.6 40 66.3 50.9 8.5 4.5 12.8 4.7 18.2 1 4.6-3.1 5.9-6.1 8.5-18.4 3.1-15.4 3.2-15.8 3.7-35 .3-9.9.7-19.4 1-21.1.5-3.8 5.6-9.1 9.8-10.2 4.7-1.3 7.8-.5 20 5.3 21.5 10.3 47.6 17.7 70.6 20.2 8.9 1 38 1 46.5 0 24.7-2.8 49.2-9.8 71.2-20.4 16.1-7.7 22.1-7.5 27.6.9 2.6 4.1 2.7 4.7 2.8 19.3 0 8.2.2 16.6.4 18.5.8 6.6 1.7 13.5 2 15 .2.8.5 2.6.8 4 .3 1.4 1.1 5.3 1.7 8.8 2.2 10.8 7.5 16.4 15.7 16.5 4.4.1 6.3-.7 18.1-7.8 73.4-44.1 126.4-116.7 145.3-199 3-12.9 2.9-12.4 5.4-28.6 1.5-9.6 2.8-29.3 2.8-42.4 0-9.7-1-31.4-1.7-35.5-.3-1.4-.7-5-1-8-.7-6.3-1.1-8.7-3.3-19-.8-4.1-1.7-8.4-1.9-9.4-1-5.4-4.9-19-7.9-28.2-23.5-71-71.1-130.9-135.5-170.6-8.3-5.2-38.2-20.9-39.3-20.7-.2 0-2.4-.8-10.6-4.1-18.8-7.4-40.5-13.3-64.6-17.4-1.6-.3-5.5-.8-8.5-1.2-3-.3-6.6-.7-8-1-4.7-.8-41.6-2.4-42.3-1.8zm22.8 190c5.1.6 6.7.9 12 1.8 1.7.3 3.3.6 3.7.6 2.3.1 19.5 6.8 26.8 10.5 24.3 12.3 45.2 33.7 56.5 58 2.1 4.4 4.1 8.7 4.5 9.5.7 1.5 3.9 12.2 4.5 15 .2.8.8 3.5 1.3 6 6.7 29.8-.7 67.8-18.1 93.5-5.2 7.7-4.8 7.2-9.9 13-17.8 20.5-40.7 34.7-65.8 40.8-10.7 2.6-12 2.8-26 3.4-36.1 1.4-68.8-11.5-94.3-37.1-18.4-18.4-30.6-42.2-35.2-68.7-1.9-10.7-2.1-30.6-.5-38.9.6-3 1.3-6.9 1.5-8.5.8-6 6.8-22.2 11.6-31.5 12-23.3 31.8-42.9 55.4-54.8 7.7-3.9 22.7-9.4 29-10.6 1.7-.4 4.1-.9 5.5-1.1 1.4-.3 5.4-.8 9-1.1 3.6-.4 6.6-.7 6.8-.9.5-.4 16 .3 21.7 1.1z"/></svg>