<?xml version="1.0" encoding="utf-8"?>
<!-- Generator: Adobe Illustrator 22.1.0, SVG Export Plug-In . SVG Version: 6.00 Build 0)  -->
<svg version="1.1" id="Слой_1" xmlns="http://www.w3.org/2000/svg" xmlns:xlink="http://www.w3.org/1999/xlink" x="0px" y="0px"
	 viewBox="0 0 1823 366" style="enable-background:new 0 0 1823 366;" xml:space="preserve">
<g id="hAilQ6.tif">
	<g>
		<path d="M48.1,36h26.4l45.7,121.7H94.9l-10.2-29.1H38.1l-10.2,29.1H2.5L48.1,36z M77.2,107.6L66.5,77L62,62.3h-1.4L56.3,77
			l-10.9,30.6H77.2z"/>
		<path d="M171.5,36h23v48.6h51.2V36h22.9v121.7h-22.9v-51.3h-51.2v51.3h-23L171.5,36L171.5,36z"/>
		<path d="M331.3,36h22.6v61.2l-1.4,23.5h1.4L403.4,36h25v121.7h-22.8V98l1.4-23.5h-1.4l-48.5,83.1h-25.8L331.3,36L331.3,36z"/>
		<path d="M491,36h29.6l32.3,85.5h1.4L586.5,36h29.8v121.7h-22.8v-60l1.4-20.2h-1.4l-30.9,80.2h-17.8l-31.1-80.2h-1.4l1.4,20.2v60
			H491V36z"/>
		<path d="M678.8,36H756v21.8h-54.2V86h48.8v21.8h-48.8V136H756v21.8h-77.2V36z"/>
		<path d="M889.1,36h47.6c6.8,0,13.1,1.4,18.8,4.2s10.2,6.7,13.5,11.6s4.9,10.2,4.9,16c0,6.1-1.5,11.4-4.5,15.9s-6.9,7.9-11.8,10.3
			v1.4c6.3,2.3,11.4,5.9,15.1,10.8c3.7,4.9,5.6,10.9,5.6,17.8c0,6.7-1.8,12.6-5.4,17.8c-3.6,5.2-8.4,9.1-14.5,11.9
			c-6.1,2.8-12.8,4.2-20.1,4.2H889V36H889.1z M935,85.6c5,0,9-1.4,12-4.2c3-2.8,4.5-6.3,4.5-10.5c0-4.1-1.4-7.5-4.3-10.3
			c-2.9-2.8-6.7-4.2-11.5-4.2H912v29.1L935,85.6L935,85.6z M937.5,136.8c5.6,0,9.9-1.4,13-4.3c3.1-2.9,4.7-6.7,4.7-11.3
			c0-4.6-1.6-8.4-4.8-11.4c-3.2-2.9-7.7-4.4-13.6-4.4H912v31.4L937.5,136.8L937.5,136.8z"/>
		<path d="M1126.4,57.8h-34V36h91v21.8h-34v100h-23V57.8z"/>
		<path d="M1236.6,36h47.6c6.8,0,13.1,1.4,18.8,4.2c5.7,2.8,10.2,6.7,13.5,11.6s4.9,10.2,4.9,16c0,6.1-1.5,11.4-4.5,15.9
			s-6.9,7.9-11.8,10.3v1.4c6.3,2.3,11.4,5.9,15.1,10.8s5.6,10.9,5.6,17.8c0,6.7-1.8,12.6-5.4,17.8s-8.4,9.1-14.5,11.9
			c-6.1,2.8-12.8,4.2-20.1,4.2h-49.3V36H1236.6z M1282.5,85.6c5,0,9-1.4,12-4.2c3-2.8,4.5-6.3,4.5-10.5c0-4.1-1.4-7.5-4.3-10.3
			s-6.7-4.2-11.5-4.2h-23.6v29.1L1282.5,85.6L1282.5,85.6z M1285,136.8c5.6,0,9.9-1.4,13-4.3c3.1-2.9,4.7-6.7,4.7-11.3
			c0-4.6-1.6-8.4-4.8-11.4c-3.2-2.9-7.7-4.4-13.6-4.4h-24.8v31.4L1285,136.8L1285,136.8z"/>
		<path d="M1406.5,152c-9.7-5.6-17.3-13.3-22.9-23s-8.3-20.5-8.3-32.1c0-11.7,2.8-22.4,8.3-32.1c5.6-9.7,13.2-17.4,22.9-23
			c9.7-5.6,20.5-8.4,32.4-8.4s22.7,2.8,32.4,8.4c9.7,5.6,17.3,13.3,22.9,23s8.3,20.5,8.3,32.1c0,11.7-2.8,22.4-8.3,32.1
			c-5.6,9.7-13.2,17.4-22.9,23c-9.7,5.6-20.5,8.4-32.4,8.4S1416.2,157.6,1406.5,152z M1459.4,133.4c6.2-3.5,11.1-8.4,14.7-14.8
			c3.6-6.3,5.4-13.6,5.4-21.8s-1.8-15.4-5.4-21.8c-3.6-6.3-8.5-11.3-14.7-14.8s-13.1-5.3-20.6-5.3s-14.3,1.8-20.5,5.3
			s-11,8.4-14.6,14.8c-3.6,6.3-5.4,13.6-5.4,21.8s1.8,15.4,5.4,21.8c3.6,6.3,8.4,11.3,14.6,14.8s13,5.3,20.5,5.3
			S1453.2,136.9,1459.4,133.4z"/>
		<path d="M1559.1,36h77.2v21.8H1582V86h48.8v21.8H1582V136h54.2v21.8H1559L1559.1,36L1559.1,36z M1572.8,23
			c-2.4-2.4-3.6-5.3-3.6-8.6c0-3.4,1.2-6.3,3.6-8.7s5.3-3.6,8.7-3.6c3.4,0,6.3,1.2,8.6,3.6c2.3,2.4,3.5,5.3,3.5,8.7
			s-1.2,6.3-3.5,8.7s-5.2,3.6-8.6,3.6C1578.1,26.6,1575.2,25.4,1572.8,23z M1605.3,23c-2.4-2.4-3.6-5.3-3.6-8.6
			c0-3.4,1.2-6.3,3.6-8.7s5.2-3.6,8.5-3.6c3.5,0,6.4,1.2,8.8,3.6c2.3,2.4,3.5,5.3,3.5,8.7s-1.2,6.3-3.6,8.7s-5.3,3.6-8.7,3.6
			C1610.5,26.6,1607.7,25.4,1605.3,23z"/>
		<path d="M1694.7,36h29.6l32.3,85.5h1.4l32.3-85.5h29.8v121.7h-22.8v-60l1.4-20.2h-1.4l-30.9,80.2h-17.8l-31.1-80.2h-1.4l1.4,20.2
			v60h-22.6V36H1694.7z"/>
		<path d="M13.9,240h23v57.1h1.4L81.8,240H110v1.4l-47.1,60l50.1,59v1.4H84l-45.7-54.2h-1.4v54.2h-23C13.9,361.8,13.9,240,13.9,240z
			"/>
		<path d="M197.2,240h26.4l45.7,121.7H244l-10.2-29.1h-46.6L177,361.7h-25.3L197.2,240z M226.3,311.6L215.6,281l-4.4-14.6h-1.4
			l-4.4,14.6l-10.9,30.6H226.3z"/>
		<path d="M320.6,240h42.8c7.7,0,14.7,1.6,21.1,4.8c6.3,3.2,11.3,7.8,15,13.6c3.6,5.8,5.4,12.5,5.4,20s-1.8,14.2-5.4,20.1
			s-8.6,10.5-15,13.7c-6.3,3.2-13.4,4.8-21.1,4.8h-19.9v44.7h-23V240H320.6z M364.1,295.2c5.7,0,10.1-1.6,13.3-4.9
			c3.2-3.3,4.8-7.3,4.8-11.9s-1.6-8.6-4.8-11.8c-3.2-3.2-7.7-4.8-13.3-4.8h-20.6v33.5h20.6V295.2z"/>
		<path d="M459.2,240h29.6l32.3,85.5h1.4l32.3-85.5h29.8v121.7h-22.8v-60l1.4-20.2h-1.4l-30.9,80.2h-17.8L482,281.5h-1.4l1.4,20.2
			v60h-22.6V240H459.2z"/>
		<path d="M681.2,240h26.4l45.7,121.7H728l-10.2-29.1h-46.6L661,361.7h-25.3L681.2,240z M710.3,311.6L699.5,281l-4.4-14.6h-1.4
			l-4.4,14.6l-10.9,30.6H710.3z"/>
		<path d="M804.6,240h23v48.6h51.2V240h22.9v121.7h-22.9v-51.3h-51.2v51.3h-23V240z"/>
		<path d="M964.4,240h77.2v21.8h-54.2V290h48.8v21.8h-48.8V340h54.2v21.8h-77.2L964.4,240L964.4,240z"/>
	</g>
</g>
</svg>
