<?xml version="1.0" encoding="utf-8"?>
<!-- Generator: Adobe Illustrator 22.1.0, SVG Export Plug-In . SVG Version: 6.00 Build 0)  -->
<svg version="1.1" id="Layer_1" xmlns="http://www.w3.org/2000/svg" xmlns:xlink="http://www.w3.org/1999/xlink" x="0px" y="0px"
	 viewBox="0 0 512 512" style="enable-background:new 0 0 512 512;" xml:space="preserve">
<style type="text/css">
	.st0{fill:#F14742;}
	.st1{fill:#FFFFFF;}
	.st2{fill:#C2E1FF;}
</style>
<path class="st0" d="M503.6,481.9c0,12.4-10.1,22.5-22.5,22.5H30.9c-12.4,0-22.5-10.1-22.5-22.5V166.8c0-12.4,10.1-22.5,22.5-22.5
	h450.1c12.4,0,22.5,10.1,22.5,22.5V481.9z"/>
<g>
	<circle class="st1" cx="430.4" cy="217.5" r="28.1"/>
	<circle class="st1" cx="430.4" cy="307.5" r="28.1"/>
</g>
<path class="st2" d="M327.2,217.2c42,31.5,38.1,175.3,0,210.8c-45.1,41.9-198.6,41.9-243.7,0c-38.1-35.4-42-179.3,0-210.8
	C133.1,180,277.6,180,327.2,217.2z"/>
<path d="M430.4,180c-20.2,0-36.6,16.4-36.6,36.6s16.4,36.6,36.6,36.6s36.6-16.4,36.6-36.6S450.6,180,430.4,180z M430.4,236.3
	c-10.9,0-19.7-8.8-19.7-19.7c0-10.9,8.8-19.7,19.7-19.7s19.7,8.8,19.7,19.7C450.1,227.5,441.3,236.3,430.4,236.3z"/>
<path d="M430.4,270.1c-20.2,0-36.6,16.4-36.6,36.6c0,20.2,16.4,36.6,36.6,36.6s36.6-16.4,36.6-36.6
	C467,286.5,450.6,270.1,430.4,270.1z M430.4,326.3c-10.9,0-19.7-8.8-19.7-19.7s8.8-19.7,19.7-19.7s19.7,8.8,19.7,19.7
	S441.3,326.3,430.4,326.3z"/>
<path d="M458.5,450.1h-56.3c-4.7,0-8.4,3.8-8.4,8.4s3.8,8.4,8.4,8.4h56.3c4.7,0,8.4-3.8,8.4-8.4S463.2,450.1,458.5,450.1z"/>
<path d="M458.5,416.4h-56.3c-4.7,0-8.4,3.8-8.4,8.4s3.8,8.4,8.4,8.4h56.3c4.7,0,8.4-3.8,8.4-8.4S463.2,416.4,458.5,416.4z"/>
<path d="M458.5,382.6h-56.3c-4.7,0-8.4,3.8-8.4,8.4s3.8,8.4,8.4,8.4h56.3c4.7,0,8.4-3.8,8.4-8.4S463.2,382.6,458.5,382.6z"/>
<path d="M481.1,135H235.4L293.5,28c6.8-1,12-6.8,12-13.9c0-7.8-6.3-14.1-14.1-14.1s-14.1,6.3-14.1,14.1c0,2.1,0.5,4.1,1.3,5.8
	L216.1,135h-35L118.6,19.9c0.8-1.8,1.3-3.8,1.3-5.8c0-7.8-6.3-14.1-14.1-14.1S91.8,6.3,91.8,14.1c0,7.1,5.2,12.9,12,13.9L162,135
	h-131C13.9,135,0,148.9,0,166v315.1C0,498.1,13.9,512,30.9,512h450.1c17.1,0,30.9-13.9,30.9-30.9V166C512,148.9,498.1,135,481.1,135
	z M495.1,481.1c0,7.8-6.3,14.1-14.1,14.1H30.9c-7.8,0-14.1-6.3-14.1-14.1V166c0-7.8,6.3-14.1,14.1-14.1h145.2c0,0,0,0,0,0
	c0,0,0,0,0,0h44.9c0,0,0,0,0,0c0,0,0,0,0,0h259.9c7.8,0,14.1,6.3,14.1,14.1V481.1z"/>
<path d="M332.3,209.6c-24.7-18.5-72.1-29.6-126.9-29.6s-102.2,11.1-126.9,29.6c-18.7,14-30.7,47.6-33,92.1
	c-2.4,46.6,6.6,107.7,32.4,131.6c26.7,24.8,83.4,33.7,127.6,33.7s100.9-8.8,127.6-33.7c10-9.3,18.1-24.7,23.9-45.7
	c1.2-4.5-1.4-9.1-5.9-10.4c-4.5-1.2-9.1,1.4-10.4,5.9c-4.9,17.7-11.5,30.8-19.1,37.8c-19.1,17.7-64.6,29.1-116.1,29.1
	s-97-11.4-116.1-29.1c-18-16.8-29.6-67.6-27-118.3c2-39,11.9-68.7,26.3-79.5c21.6-16.2,66.3-26.2,116.8-26.2s95.2,10,116.8,26.2
	c20.6,15.4,31.4,71.4,24.7,127.5c-0.6,4.6,2.7,8.8,7.4,9.4c4.6,0.5,8.8-2.7,9.4-7.4C369.9,299.9,362.8,232.6,332.3,209.6z"/>
</svg>
